<svg width="100%" height="100%" id="svg" viewBox="0 0 1440 390" xmlns="http://www.w3.org/2000/svg" class="transition duration-300 ease-in-out delay-150"><path d="M 0,400 L 0,400 C 93.7129186602871,272.8612440191388 187.4258373205742,145.7224880382775 289,89 C 390.5741626794258,32.27751196172249 500.0095693779904,45.97129186602871 600,58 C 699.9904306220096,70.02870813397129 790.5358851674642,80.39234449760765 868,69 C 945.4641148325358,57.60765550239235 1009.8468899521531,24.45933014354067 1103,76 C 1196.153110047847,127.54066985645933 1318.0765550239234,263.77033492822966 1440,400 L 1440,400 L 0,400 Z" stroke="none" stroke-width="0" fill="#526ecc" fill-opacity="0.4" class="transition-all duration-300 ease-in-out delay-150 path-0" transform="rotate(-180 720 200)"></path><path d="M 0,400 L 0,400 C 122.3732057416268,316.2392344497608 244.7464114832536,232.47846889952152 330,191 C 415.2535885167464,149.52153110047848 463.38755980861254,150.32535885167462 544,167 C 624.6124401913875,183.67464114832538 737.7033492822965,216.22009569377994 836,200 C 934.2966507177035,183.77990430622006 1017.799043062201,118.79425837320574 1116,144 C 1214.200956937799,169.20574162679426 1327.1004784688994,284.60287081339715 1440,400 L 1440,400 L 0,400 Z" stroke="none" stroke-width="0" fill="#526ecc" fill-opacity="0.53" class="transition-all duration-300 ease-in-out delay-150 path-1" transform="rotate(-180 720 200)"></path><path d="M 0,400 L 0,400 C 123.63636363636365,359.4354066985646 247.2727272727273,318.87081339712915 337,299 C 426.7272727272727,279.12918660287085 482.5454545454545,279.95215311004785 556,287 C 629.4545454545455,294.04784688995215 720.5454545454546,307.3205741626794 823,292 C 925.4545454545454,276.6794258373206 1039.2727272727273,232.76555023923447 1144,246 C 1248.7272727272727,259.23444976076553 1344.3636363636365,329.61722488038276 1440,400 L 1440,400 L 0,400 Z" stroke="none" stroke-width="0" fill="#526ecc" fill-opacity="1" class="transition-all duration-300 ease-in-out delay-150 path-2" transform="rotate(-180 720 200)"></path></svg>
